<mxfile host="Electron" modified="2024-03-18T22:59:17.451Z" agent="Mozilla/5.0 (Windows NT 10.0; Win64; x64) AppleWebKit/537.36 (KHTML, like Gecko) draw.io/24.0.4 Chrome/120.0.6099.109 Electron/28.1.0 Safari/537.36" etag="3blwoJHSnXha1-JQJi4V" version="24.0.4" type="device">
  <diagram name="Page-1" id="2cc2dc42-3aac-f2a9-1cec-7a8b7cbee084">
    <mxGraphModel dx="1313" dy="786" grid="1" gridSize="10" guides="1" tooltips="1" connect="1" arrows="1" fold="1" page="1" pageScale="1" pageWidth="1100" pageHeight="850" background="none" math="0" shadow="0">
      <root>
        <mxCell id="0" />
        <mxCell id="1" parent="0" />
        <mxCell id="ZNkZt2BZPGhR_4YF77qX-10" value="" style="strokeWidth=1;shadow=0;dashed=0;align=center;html=1;shape=mxgraph.mockup.containers.browserWindow;rSize=0;strokeColor=#666666;strokeColor2=#008cff;strokeColor3=#c4c4c4;mainText=,;recursiveResize=0;" parent="1" vertex="1">
          <mxGeometry x="120" y="100" width="740" height="580" as="geometry" />
        </mxCell>
        <mxCell id="ZNkZt2BZPGhR_4YF77qX-11" value="Bookstore" style="strokeWidth=1;shadow=0;dashed=0;align=center;html=1;shape=mxgraph.mockup.containers.anchor;fontSize=17;fontColor=#666666;align=left;whiteSpace=wrap;" parent="ZNkZt2BZPGhR_4YF77qX-10" vertex="1">
          <mxGeometry x="60" y="12" width="110" height="26" as="geometry" />
        </mxCell>
        <mxCell id="ZNkZt2BZPGhR_4YF77qX-12" value="https://www.example.com" style="strokeWidth=1;shadow=0;dashed=0;align=center;html=1;shape=mxgraph.mockup.containers.anchor;rSize=0;fontSize=17;fontColor=#666666;align=left;" parent="ZNkZt2BZPGhR_4YF77qX-10" vertex="1">
          <mxGeometry x="130" y="60" width="250" height="26" as="geometry" />
        </mxCell>
        <mxCell id="ZNkZt2BZPGhR_4YF77qX-13" value="" style="rounded=0;whiteSpace=wrap;html=1;" parent="ZNkZt2BZPGhR_4YF77qX-10" vertex="1">
          <mxGeometry y="110" width="740" height="470" as="geometry" />
        </mxCell>
        <mxCell id="ZNkZt2BZPGhR_4YF77qX-14" value="" style="endArrow=none;html=1;rounded=0;entryX=1;entryY=0;entryDx=0;entryDy=0;exitX=0;exitY=1;exitDx=0;exitDy=0;" parent="ZNkZt2BZPGhR_4YF77qX-10" source="ZNkZt2BZPGhR_4YF77qX-33" target="ZNkZt2BZPGhR_4YF77qX-13" edge="1">
          <mxGeometry width="50" height="50" relative="1" as="geometry">
            <mxPoint x="350" y="420" as="sourcePoint" />
            <mxPoint x="400" y="370" as="targetPoint" />
          </mxGeometry>
        </mxCell>
        <mxCell id="ZNkZt2BZPGhR_4YF77qX-15" value="" style="endArrow=none;html=1;rounded=0;entryX=0;entryY=0;entryDx=0;entryDy=0;exitX=1;exitY=1;exitDx=0;exitDy=0;" parent="ZNkZt2BZPGhR_4YF77qX-10" source="ZNkZt2BZPGhR_4YF77qX-13" target="ZNkZt2BZPGhR_4YF77qX-13" edge="1">
          <mxGeometry width="50" height="50" relative="1" as="geometry">
            <mxPoint x="350" y="420" as="sourcePoint" />
            <mxPoint x="400" y="370" as="targetPoint" />
          </mxGeometry>
        </mxCell>
        <mxCell id="ZNkZt2BZPGhR_4YF77qX-34" value="" style="endArrow=none;html=1;rounded=0;entryX=1;entryY=0;entryDx=0;entryDy=0;exitX=0;exitY=1;exitDx=0;exitDy=0;" parent="ZNkZt2BZPGhR_4YF77qX-10" source="ZNkZt2BZPGhR_4YF77qX-13" target="ZNkZt2BZPGhR_4YF77qX-33" edge="1">
          <mxGeometry width="50" height="50" relative="1" as="geometry">
            <mxPoint x="130" y="630" as="sourcePoint" />
            <mxPoint x="870" y="210" as="targetPoint" />
          </mxGeometry>
        </mxCell>
        <mxCell id="ZNkZt2BZPGhR_4YF77qX-16" value="" style="rounded=0;whiteSpace=wrap;html=1;" parent="ZNkZt2BZPGhR_4YF77qX-10" vertex="1">
          <mxGeometry x="77.5" y="165" width="585" height="415" as="geometry" />
        </mxCell>
        <mxCell id="ZNkZt2BZPGhR_4YF77qX-19" value="" style="rounded=1;whiteSpace=wrap;html=1;" parent="ZNkZt2BZPGhR_4YF77qX-10" vertex="1">
          <mxGeometry x="115" y="135" width="510" height="60" as="geometry" />
        </mxCell>
        <mxCell id="ZNkZt2BZPGhR_4YF77qX-20" value="" style="endArrow=none;html=1;rounded=0;entryX=0.987;entryY=0.012;entryDx=0;entryDy=0;exitX=0.012;exitY=0.989;exitDx=0;exitDy=0;entryPerimeter=0;exitPerimeter=0;" parent="ZNkZt2BZPGhR_4YF77qX-10" source="ZNkZt2BZPGhR_4YF77qX-19" target="ZNkZt2BZPGhR_4YF77qX-19" edge="1">
          <mxGeometry width="50" height="50" relative="1" as="geometry">
            <mxPoint x="400" y="360" as="sourcePoint" />
            <mxPoint x="450" y="310" as="targetPoint" />
          </mxGeometry>
        </mxCell>
        <mxCell id="ZNkZt2BZPGhR_4YF77qX-21" value="" style="endArrow=none;html=1;rounded=0;entryX=0;entryY=0;entryDx=0;entryDy=0;exitX=0.991;exitY=0.98;exitDx=0;exitDy=0;exitPerimeter=0;" parent="ZNkZt2BZPGhR_4YF77qX-10" source="ZNkZt2BZPGhR_4YF77qX-19" edge="1">
          <mxGeometry width="50" height="50" relative="1" as="geometry">
            <mxPoint x="495" y="180" as="sourcePoint" />
            <mxPoint x="130.00000000000017" y="135" as="targetPoint" />
          </mxGeometry>
        </mxCell>
        <mxCell id="ZNkZt2BZPGhR_4YF77qX-22" value="Home" style="rounded=1;whiteSpace=wrap;html=1;" parent="ZNkZt2BZPGhR_4YF77qX-10" vertex="1">
          <mxGeometry x="140" y="150" width="100" height="30" as="geometry" />
        </mxCell>
        <mxCell id="ZNkZt2BZPGhR_4YF77qX-23" value="Blog" style="rounded=1;whiteSpace=wrap;html=1;" parent="ZNkZt2BZPGhR_4YF77qX-10" vertex="1">
          <mxGeometry x="260" y="150" width="100" height="30" as="geometry" />
        </mxCell>
        <mxCell id="ZNkZt2BZPGhR_4YF77qX-26" value="Webshop" style="rounded=1;whiteSpace=wrap;html=1;" parent="ZNkZt2BZPGhR_4YF77qX-10" vertex="1">
          <mxGeometry x="380" y="150" width="100" height="30" as="geometry" />
        </mxCell>
        <mxCell id="ZNkZt2BZPGhR_4YF77qX-31" value="About us" style="rounded=1;whiteSpace=wrap;html=1;" parent="ZNkZt2BZPGhR_4YF77qX-10" vertex="1">
          <mxGeometry x="500" y="150" width="100" height="30" as="geometry" />
        </mxCell>
        <mxCell id="ZNkZt2BZPGhR_4YF77qX-33" value="" style="rounded=0;whiteSpace=wrap;html=1;" parent="ZNkZt2BZPGhR_4YF77qX-10" vertex="1">
          <mxGeometry x="670" y="110" width="70" height="30" as="geometry" />
        </mxCell>
        <mxCell id="ZNkZt2BZPGhR_4YF77qX-36" value="" style="verticalLabelPosition=bottom;verticalAlign=top;html=1;shape=mxgraph.basic.moon" parent="ZNkZt2BZPGhR_4YF77qX-10" vertex="1">
          <mxGeometry x="680" y="115" width="20" height="20" as="geometry" />
        </mxCell>
        <mxCell id="ZNkZt2BZPGhR_4YF77qX-37" value="" style="verticalLabelPosition=bottom;verticalAlign=top;html=1;shape=mxgraph.basic.sun" parent="ZNkZt2BZPGhR_4YF77qX-10" vertex="1">
          <mxGeometry x="710" y="115" width="20" height="20" as="geometry" />
        </mxCell>
        <mxCell id="zfqRLFYkSr0T_Uyutxn8-1" value="Welcome to our bookstore" style="text;html=1;align=center;verticalAlign=middle;whiteSpace=wrap;rounded=0;fontSize=26;" vertex="1" parent="ZNkZt2BZPGhR_4YF77qX-10">
          <mxGeometry x="190" y="220" width="360" height="30" as="geometry" />
        </mxCell>
        <mxCell id="zfqRLFYkSr0T_Uyutxn8-3" value="Featured books" style="text;html=1;align=center;verticalAlign=middle;whiteSpace=wrap;rounded=0;fontSize=18;" vertex="1" parent="ZNkZt2BZPGhR_4YF77qX-10">
          <mxGeometry x="305" y="295" width="130" height="30" as="geometry" />
        </mxCell>
        <mxCell id="zfqRLFYkSr0T_Uyutxn8-8" value="Reviews from our customers" style="text;html=1;align=center;verticalAlign=middle;whiteSpace=wrap;rounded=0;fontSize=18;" vertex="1" parent="ZNkZt2BZPGhR_4YF77qX-10">
          <mxGeometry x="237.5" y="430" width="265" height="30" as="geometry" />
        </mxCell>
        <mxCell id="zfqRLFYkSr0T_Uyutxn8-19" value="" style="group" vertex="1" connectable="0" parent="ZNkZt2BZPGhR_4YF77qX-10">
          <mxGeometry x="130" y="480" width="180" height="80" as="geometry" />
        </mxCell>
        <mxCell id="zfqRLFYkSr0T_Uyutxn8-11" value="" style="rounded=1;whiteSpace=wrap;html=1;" vertex="1" parent="zfqRLFYkSr0T_Uyutxn8-19">
          <mxGeometry width="180" height="80" as="geometry" />
        </mxCell>
        <mxCell id="zfqRLFYkSr0T_Uyutxn8-12" value="User 1" style="text;html=1;align=center;verticalAlign=middle;whiteSpace=wrap;rounded=0;" vertex="1" parent="zfqRLFYkSr0T_Uyutxn8-19">
          <mxGeometry width="60" height="30" as="geometry" />
        </mxCell>
        <mxCell id="zfqRLFYkSr0T_Uyutxn8-13" value="" style="html=1;verticalLabelPosition=bottom;labelBackgroundColor=#ffffff;verticalAlign=top;shadow=0;dashed=0;strokeWidth=2;shape=mxgraph.ios7.misc.star;fillColor=#0080f0;strokeColor=none;sketch=0;" vertex="1" parent="zfqRLFYkSr0T_Uyutxn8-19">
          <mxGeometry x="70" y="9" width="12" height="12" as="geometry" />
        </mxCell>
        <mxCell id="zfqRLFYkSr0T_Uyutxn8-14" value="" style="html=1;verticalLabelPosition=bottom;labelBackgroundColor=#ffffff;verticalAlign=top;shadow=0;dashed=0;strokeWidth=2;shape=mxgraph.ios7.misc.star;fillColor=#0080f0;strokeColor=none;sketch=0;" vertex="1" parent="zfqRLFYkSr0T_Uyutxn8-19">
          <mxGeometry x="84" y="9" width="12" height="12" as="geometry" />
        </mxCell>
        <mxCell id="zfqRLFYkSr0T_Uyutxn8-15" value="" style="html=1;verticalLabelPosition=bottom;labelBackgroundColor=#ffffff;verticalAlign=top;shadow=0;dashed=0;strokeWidth=2;shape=mxgraph.ios7.misc.star;fillColor=#0080f0;strokeColor=none;sketch=0;" vertex="1" parent="zfqRLFYkSr0T_Uyutxn8-19">
          <mxGeometry x="98" y="9" width="12" height="12" as="geometry" />
        </mxCell>
        <mxCell id="zfqRLFYkSr0T_Uyutxn8-16" value="" style="html=1;verticalLabelPosition=bottom;labelBackgroundColor=#ffffff;verticalAlign=top;shadow=0;dashed=0;strokeWidth=2;shape=mxgraph.ios7.misc.star;fillColor=#0080f0;strokeColor=none;sketch=0;" vertex="1" parent="zfqRLFYkSr0T_Uyutxn8-19">
          <mxGeometry x="112" y="9" width="12" height="12" as="geometry" />
        </mxCell>
        <mxCell id="zfqRLFYkSr0T_Uyutxn8-17" value="" style="html=1;verticalLabelPosition=bottom;labelBackgroundColor=#ffffff;verticalAlign=top;shadow=0;dashed=0;strokeWidth=2;shape=mxgraph.ios7.misc.star;fillColor=#0080f0;strokeColor=none;sketch=0;" vertex="1" parent="zfqRLFYkSr0T_Uyutxn8-19">
          <mxGeometry x="126" y="9" width="12" height="12" as="geometry" />
        </mxCell>
        <mxCell id="zfqRLFYkSr0T_Uyutxn8-18" value="Lorem ipsum dolor sit amet, consectetur adipiscing elit. Morbi vel &lt;br style=&quot;font-size: 9px;&quot;&gt;varius nisl. In pulvinar commodo varius.&amp;nbsp;" style="text;html=1;align=left;verticalAlign=middle;whiteSpace=wrap;rounded=0;fontSize=9;" vertex="1" parent="zfqRLFYkSr0T_Uyutxn8-19">
          <mxGeometry x="10" y="20" width="170" height="60" as="geometry" />
        </mxCell>
        <mxCell id="zfqRLFYkSr0T_Uyutxn8-20" value="" style="group;labelBackgroundColor=#666666;fontColor=#666666;" vertex="1" connectable="0" parent="ZNkZt2BZPGhR_4YF77qX-10">
          <mxGeometry x="430" y="480" width="180" height="80" as="geometry" />
        </mxCell>
        <mxCell id="zfqRLFYkSr0T_Uyutxn8-21" value="" style="rounded=1;whiteSpace=wrap;html=1;" vertex="1" parent="zfqRLFYkSr0T_Uyutxn8-20">
          <mxGeometry width="180" height="80" as="geometry" />
        </mxCell>
        <mxCell id="zfqRLFYkSr0T_Uyutxn8-22" value="User 2" style="text;html=1;align=center;verticalAlign=middle;whiteSpace=wrap;rounded=0;" vertex="1" parent="zfqRLFYkSr0T_Uyutxn8-20">
          <mxGeometry width="60" height="30" as="geometry" />
        </mxCell>
        <mxCell id="zfqRLFYkSr0T_Uyutxn8-23" value="" style="html=1;verticalLabelPosition=bottom;labelBackgroundColor=#ffffff;verticalAlign=top;shadow=0;dashed=0;strokeWidth=2;shape=mxgraph.ios7.misc.star;fillColor=#0080f0;strokeColor=none;sketch=0;" vertex="1" parent="zfqRLFYkSr0T_Uyutxn8-20">
          <mxGeometry x="70" y="9" width="12" height="12" as="geometry" />
        </mxCell>
        <mxCell id="zfqRLFYkSr0T_Uyutxn8-24" value="" style="html=1;verticalLabelPosition=bottom;labelBackgroundColor=#ffffff;verticalAlign=top;shadow=0;dashed=0;strokeWidth=2;shape=mxgraph.ios7.misc.star;fillColor=#0080f0;strokeColor=none;sketch=0;" vertex="1" parent="zfqRLFYkSr0T_Uyutxn8-20">
          <mxGeometry x="84" y="9" width="12" height="12" as="geometry" />
        </mxCell>
        <mxCell id="zfqRLFYkSr0T_Uyutxn8-25" value="" style="html=1;verticalLabelPosition=bottom;labelBackgroundColor=#ffffff;verticalAlign=top;shadow=0;dashed=0;strokeWidth=2;shape=mxgraph.ios7.misc.star;fillColor=#0080f0;strokeColor=none;sketch=0;" vertex="1" parent="zfqRLFYkSr0T_Uyutxn8-20">
          <mxGeometry x="98" y="9" width="12" height="12" as="geometry" />
        </mxCell>
        <mxCell id="zfqRLFYkSr0T_Uyutxn8-26" value="" style="html=1;verticalLabelPosition=bottom;labelBackgroundColor=#ffffff;verticalAlign=top;shadow=0;dashed=0;strokeWidth=2;shape=mxgraph.ios7.misc.star;fillColor=#0080f0;strokeColor=none;sketch=0;" vertex="1" parent="zfqRLFYkSr0T_Uyutxn8-20">
          <mxGeometry x="112" y="9" width="12" height="12" as="geometry" />
        </mxCell>
        <mxCell id="zfqRLFYkSr0T_Uyutxn8-27" value="" style="html=1;verticalLabelPosition=bottom;labelBackgroundColor=#ffffff;verticalAlign=top;shadow=0;dashed=0;strokeWidth=2;shape=mxgraph.ios7.misc.star;fillColor=#0080f0;strokeColor=none;sketch=0;" vertex="1" parent="zfqRLFYkSr0T_Uyutxn8-20">
          <mxGeometry x="126" y="9" width="12" height="12" as="geometry" />
        </mxCell>
        <mxCell id="zfqRLFYkSr0T_Uyutxn8-28" value="Lorem ipsum dolor sit amet, consectetur adipiscing elit. Morbi vel &lt;br style=&quot;font-size: 9px;&quot;&gt;varius nisl. In pulvinar commodo varius.&amp;nbsp;" style="text;html=1;align=left;verticalAlign=middle;whiteSpace=wrap;rounded=0;fontSize=9;labelBackgroundColor=default;" vertex="1" parent="zfqRLFYkSr0T_Uyutxn8-20">
          <mxGeometry x="10" y="20" width="170" height="60" as="geometry" />
        </mxCell>
        <mxCell id="zfqRLFYkSr0T_Uyutxn8-37" value="" style="group" vertex="1" connectable="0" parent="ZNkZt2BZPGhR_4YF77qX-10">
          <mxGeometry x="77.5" y="340" width="195" height="70" as="geometry" />
        </mxCell>
        <mxCell id="zfqRLFYkSr0T_Uyutxn8-4" value="" style="rounded=0;whiteSpace=wrap;html=1;" vertex="1" parent="zfqRLFYkSr0T_Uyutxn8-37">
          <mxGeometry width="195" height="70" as="geometry" />
        </mxCell>
        <mxCell id="zfqRLFYkSr0T_Uyutxn8-30" value="Book 1" style="text;html=1;align=center;verticalAlign=middle;whiteSpace=wrap;rounded=0;" vertex="1" parent="zfqRLFYkSr0T_Uyutxn8-37">
          <mxGeometry x="67.5" width="60" height="30" as="geometry" />
        </mxCell>
        <mxCell id="zfqRLFYkSr0T_Uyutxn8-31" value="Category 1" style="text;html=1;align=center;verticalAlign=middle;whiteSpace=wrap;rounded=0;" vertex="1" parent="zfqRLFYkSr0T_Uyutxn8-37">
          <mxGeometry x="62.5" y="17.5" width="70" height="30" as="geometry" />
        </mxCell>
        <mxCell id="zfqRLFYkSr0T_Uyutxn8-32" value="" style="html=1;verticalLabelPosition=bottom;labelBackgroundColor=#ffffff;verticalAlign=top;shadow=0;dashed=0;strokeWidth=2;shape=mxgraph.ios7.misc.star;fillColor=#0080f0;strokeColor=none;sketch=0;" vertex="1" parent="zfqRLFYkSr0T_Uyutxn8-37">
          <mxGeometry x="59.5" y="47.5" width="12" height="12" as="geometry" />
        </mxCell>
        <mxCell id="zfqRLFYkSr0T_Uyutxn8-33" value="" style="html=1;verticalLabelPosition=bottom;labelBackgroundColor=#ffffff;verticalAlign=top;shadow=0;dashed=0;strokeWidth=2;shape=mxgraph.ios7.misc.star;fillColor=#0080f0;strokeColor=none;sketch=0;" vertex="1" parent="zfqRLFYkSr0T_Uyutxn8-37">
          <mxGeometry x="73.5" y="47.5" width="12" height="12" as="geometry" />
        </mxCell>
        <mxCell id="zfqRLFYkSr0T_Uyutxn8-34" value="" style="html=1;verticalLabelPosition=bottom;labelBackgroundColor=#ffffff;verticalAlign=top;shadow=0;dashed=0;strokeWidth=2;shape=mxgraph.ios7.misc.star;fillColor=#0080f0;strokeColor=none;sketch=0;" vertex="1" parent="zfqRLFYkSr0T_Uyutxn8-37">
          <mxGeometry x="87.5" y="47.5" width="12" height="12" as="geometry" />
        </mxCell>
        <mxCell id="zfqRLFYkSr0T_Uyutxn8-35" value="" style="html=1;verticalLabelPosition=bottom;labelBackgroundColor=#ffffff;verticalAlign=top;shadow=0;dashed=0;strokeWidth=2;shape=mxgraph.ios7.misc.star;fillColor=#0080f0;strokeColor=none;sketch=0;" vertex="1" parent="zfqRLFYkSr0T_Uyutxn8-37">
          <mxGeometry x="101.5" y="47.5" width="12" height="12" as="geometry" />
        </mxCell>
        <mxCell id="zfqRLFYkSr0T_Uyutxn8-36" value="" style="html=1;verticalLabelPosition=bottom;labelBackgroundColor=#ffffff;verticalAlign=top;shadow=0;dashed=0;strokeWidth=2;shape=mxgraph.ios7.misc.star;fillColor=#0080f0;strokeColor=none;sketch=0;" vertex="1" parent="zfqRLFYkSr0T_Uyutxn8-37">
          <mxGeometry x="115.5" y="47.5" width="12" height="12" as="geometry" />
        </mxCell>
        <mxCell id="zfqRLFYkSr0T_Uyutxn8-38" value="" style="group" vertex="1" connectable="0" parent="ZNkZt2BZPGhR_4YF77qX-10">
          <mxGeometry x="272.5" y="340" width="195" height="70" as="geometry" />
        </mxCell>
        <mxCell id="zfqRLFYkSr0T_Uyutxn8-39" value="" style="rounded=0;whiteSpace=wrap;html=1;" vertex="1" parent="zfqRLFYkSr0T_Uyutxn8-38">
          <mxGeometry width="195" height="70" as="geometry" />
        </mxCell>
        <mxCell id="zfqRLFYkSr0T_Uyutxn8-40" value="Book 2" style="text;html=1;align=center;verticalAlign=middle;whiteSpace=wrap;rounded=0;" vertex="1" parent="zfqRLFYkSr0T_Uyutxn8-38">
          <mxGeometry x="67.5" width="60" height="30" as="geometry" />
        </mxCell>
        <mxCell id="zfqRLFYkSr0T_Uyutxn8-41" value="Category 2" style="text;html=1;align=center;verticalAlign=middle;whiteSpace=wrap;rounded=0;" vertex="1" parent="zfqRLFYkSr0T_Uyutxn8-38">
          <mxGeometry x="62.5" y="17.5" width="70" height="30" as="geometry" />
        </mxCell>
        <mxCell id="zfqRLFYkSr0T_Uyutxn8-42" value="" style="html=1;verticalLabelPosition=bottom;labelBackgroundColor=#ffffff;verticalAlign=top;shadow=0;dashed=0;strokeWidth=2;shape=mxgraph.ios7.misc.star;fillColor=#0080f0;strokeColor=none;sketch=0;" vertex="1" parent="zfqRLFYkSr0T_Uyutxn8-38">
          <mxGeometry x="59.5" y="47.5" width="12" height="12" as="geometry" />
        </mxCell>
        <mxCell id="zfqRLFYkSr0T_Uyutxn8-43" value="" style="html=1;verticalLabelPosition=bottom;labelBackgroundColor=#ffffff;verticalAlign=top;shadow=0;dashed=0;strokeWidth=2;shape=mxgraph.ios7.misc.star;fillColor=#0080f0;strokeColor=none;sketch=0;" vertex="1" parent="zfqRLFYkSr0T_Uyutxn8-38">
          <mxGeometry x="73.5" y="47.5" width="12" height="12" as="geometry" />
        </mxCell>
        <mxCell id="zfqRLFYkSr0T_Uyutxn8-44" value="" style="html=1;verticalLabelPosition=bottom;labelBackgroundColor=#ffffff;verticalAlign=top;shadow=0;dashed=0;strokeWidth=2;shape=mxgraph.ios7.misc.star;fillColor=#0080f0;strokeColor=none;sketch=0;" vertex="1" parent="zfqRLFYkSr0T_Uyutxn8-38">
          <mxGeometry x="87.5" y="47.5" width="12" height="12" as="geometry" />
        </mxCell>
        <mxCell id="zfqRLFYkSr0T_Uyutxn8-45" value="" style="html=1;verticalLabelPosition=bottom;labelBackgroundColor=#ffffff;verticalAlign=top;shadow=0;dashed=0;strokeWidth=2;shape=mxgraph.ios7.misc.star;fillColor=#0080f0;strokeColor=none;sketch=0;" vertex="1" parent="zfqRLFYkSr0T_Uyutxn8-38">
          <mxGeometry x="101.5" y="47.5" width="12" height="12" as="geometry" />
        </mxCell>
        <mxCell id="zfqRLFYkSr0T_Uyutxn8-46" value="" style="html=1;verticalLabelPosition=bottom;labelBackgroundColor=#ffffff;verticalAlign=top;shadow=0;dashed=0;strokeWidth=2;shape=mxgraph.ios7.misc.star;fillColor=#0080f0;strokeColor=none;sketch=0;" vertex="1" parent="zfqRLFYkSr0T_Uyutxn8-38">
          <mxGeometry x="115.5" y="47.5" width="12" height="12" as="geometry" />
        </mxCell>
        <mxCell id="zfqRLFYkSr0T_Uyutxn8-47" value="" style="group" vertex="1" connectable="0" parent="ZNkZt2BZPGhR_4YF77qX-10">
          <mxGeometry x="467.5" y="340" width="195" height="70" as="geometry" />
        </mxCell>
        <mxCell id="zfqRLFYkSr0T_Uyutxn8-48" value="" style="rounded=0;whiteSpace=wrap;html=1;" vertex="1" parent="zfqRLFYkSr0T_Uyutxn8-47">
          <mxGeometry width="195" height="70" as="geometry" />
        </mxCell>
        <mxCell id="zfqRLFYkSr0T_Uyutxn8-49" value="Book 3" style="text;html=1;align=center;verticalAlign=middle;whiteSpace=wrap;rounded=0;" vertex="1" parent="zfqRLFYkSr0T_Uyutxn8-47">
          <mxGeometry x="67.5" width="60" height="30" as="geometry" />
        </mxCell>
        <mxCell id="zfqRLFYkSr0T_Uyutxn8-50" value="Category 3" style="text;html=1;align=center;verticalAlign=middle;whiteSpace=wrap;rounded=0;" vertex="1" parent="zfqRLFYkSr0T_Uyutxn8-47">
          <mxGeometry x="62.5" y="17.5" width="70" height="30" as="geometry" />
        </mxCell>
        <mxCell id="zfqRLFYkSr0T_Uyutxn8-51" value="" style="html=1;verticalLabelPosition=bottom;labelBackgroundColor=#ffffff;verticalAlign=top;shadow=0;dashed=0;strokeWidth=2;shape=mxgraph.ios7.misc.star;fillColor=#0080f0;strokeColor=none;sketch=0;" vertex="1" parent="zfqRLFYkSr0T_Uyutxn8-47">
          <mxGeometry x="59.5" y="47.5" width="12" height="12" as="geometry" />
        </mxCell>
        <mxCell id="zfqRLFYkSr0T_Uyutxn8-52" value="" style="html=1;verticalLabelPosition=bottom;labelBackgroundColor=#ffffff;verticalAlign=top;shadow=0;dashed=0;strokeWidth=2;shape=mxgraph.ios7.misc.star;fillColor=#0080f0;strokeColor=none;sketch=0;" vertex="1" parent="zfqRLFYkSr0T_Uyutxn8-47">
          <mxGeometry x="73.5" y="47.5" width="12" height="12" as="geometry" />
        </mxCell>
        <mxCell id="zfqRLFYkSr0T_Uyutxn8-53" value="" style="html=1;verticalLabelPosition=bottom;labelBackgroundColor=#ffffff;verticalAlign=top;shadow=0;dashed=0;strokeWidth=2;shape=mxgraph.ios7.misc.star;fillColor=#0080f0;strokeColor=none;sketch=0;" vertex="1" parent="zfqRLFYkSr0T_Uyutxn8-47">
          <mxGeometry x="87.5" y="47.5" width="12" height="12" as="geometry" />
        </mxCell>
        <mxCell id="zfqRLFYkSr0T_Uyutxn8-54" value="" style="html=1;verticalLabelPosition=bottom;labelBackgroundColor=#ffffff;verticalAlign=top;shadow=0;dashed=0;strokeWidth=2;shape=mxgraph.ios7.misc.star;fillColor=#0080f0;strokeColor=none;sketch=0;" vertex="1" parent="zfqRLFYkSr0T_Uyutxn8-47">
          <mxGeometry x="101.5" y="47.5" width="12" height="12" as="geometry" />
        </mxCell>
        <mxCell id="zfqRLFYkSr0T_Uyutxn8-55" value="" style="html=1;verticalLabelPosition=bottom;labelBackgroundColor=#ffffff;verticalAlign=top;shadow=0;dashed=0;strokeWidth=2;shape=mxgraph.ios7.misc.star;fillColor=#0080f0;strokeColor=none;sketch=0;" vertex="1" parent="zfqRLFYkSr0T_Uyutxn8-47">
          <mxGeometry x="115.5" y="47.5" width="12" height="12" as="geometry" />
        </mxCell>
      </root>
    </mxGraphModel>
  </diagram>
</mxfile>
